<?xml version="1.0" standalone="no"?>
<!DOCTYPE svg PUBLIC "-//W3C//DTD SVG 20010904//EN"
 "http://www.w3.org/TR/2001/REC-SVG-20010904/DTD/svg10.dtd">
<svg version="1.0" xmlns="http://www.w3.org/2000/svg"
 width="1280.000000pt" height="1280.000000pt" viewBox="0 0 1280.000000 1280.000000"
 preserveAspectRatio="xMidYMid meet">

  <defs>
    <linearGradient id="rainbow" x1="0" x2="0" y1="0" y2="100%" gradientUnits="userSpaceOnUse" >
      <stop stop-color="#FF5B99" offset="0%"/>
      <stop stop-color="#FF5447" offset="20%"/>
      <stop stop-color="#FF7B21" offset="40%"/>
      <stop stop-color="#EAFC37" offset="60%"/>
      <stop stop-color="#4FCB6B" offset="80%"/>
      <stop stop-color="#51F7FE" offset="100%"/> 
    </linearGradient>
  </defs>

<g transform="translate(0.000000,1280.000000) scale(0.100000,-0.100000)"
fill="url(#rainbow)" stroke="none">
<path d="M6257 9973 c-4 -3 -7 -21 -7 -39 0 -18 -4 -43 -9 -56 -42 -107 -59
-142 -97 -201 -24 -37 -44 -70 -44 -73 0 -6 -73 -105 -124 -167 -22 -27 -50
-53 -63 -58 -47 -18 -16 -54 56 -64 71 -10 77 -22 41 -79 -17 -26 -43 -73 -59
-104 -16 -31 -54 -92 -85 -135 -31 -43 -56 -82 -56 -88 0 -11 1 -11 107 -9 44
1 84 -3 87 -8 3 -5 -15 -26 -39 -47 -24 -21 -41 -43 -38 -49 3 -6 3 -8 -1 -4
-5 4 -37 -18 -73 -48 -35 -30 -74 -60 -86 -65 -62 -29 -122 -65 -122 -74 0
-12 350 -8 410 5 22 5 60 10 84 12 l44 2 3 -78 c2 -60 7 -86 22 -105 10 -14
23 -26 28 -26 5 0 14 -3 20 -7 5 -4 63 -11 128 -17 127 -11 164 -4 151 27 -6
13 -33 166 -35 193 0 3 114 9 253 13 241 7 255 8 309 33 67 30 92 54 84 80 -4
11 -33 42 -66 69 -33 27 -60 52 -60 56 0 3 -22 22 -50 42 -54 39 -63 56 -29
56 27 0 96 39 104 58 8 20 -9 37 -63 63 -47 23 -212 182 -212 206 0 7 23 14
58 18 68 7 86 15 90 42 2 15 -16 36 -72 79 -41 33 -93 70 -115 84 -23 13 -85
73 -139 133 -53 60 -105 118 -114 128 -9 10 -24 31 -32 48 -26 50 -137 161
-161 161 -12 0 -25 -3 -28 -7z m84 -132 c19 -22 52 -65 74 -97 22 -31 60 -77
83 -103 24 -25 62 -68 84 -94 41 -49 100 -94 172 -132 53 -28 55 -41 7 -49
-56 -9 -90 -26 -97 -48 -4 -15 15 -40 78 -105 119 -123 132 -136 163 -157 35
-24 19 -36 -52 -36 -29 0 -53 -2 -53 -4 0 -2 -3 -11 -6 -19 -6 -17 52 -79 150
-162 32 -28 72 -62 89 -77 l31 -27 -30 -13 c-20 -9 -110 -14 -294 -18 -146 -3
-270 -9 -277 -13 -9 -6 -11 -38 -6 -122 l6 -115 -106 0 c-58 0 -108 3 -110 8
-3 4 -8 48 -11 97 -9 116 -13 119 -126 111 -274 -20 -280 -20 -280 -3 0 9 9
18 20 22 11 3 28 17 39 31 10 13 24 24 29 24 6 0 25 17 44 38 18 21 59 60 91
87 55 47 71 74 45 76 -7 0 -54 0 -104 -1 -51 -1 -94 2 -97 7 -3 4 16 40 41 79
26 39 60 93 75 120 15 27 39 67 52 89 14 22 25 50 25 62 0 26 -32 50 -78 59
-18 4 -32 8 -32 10 0 2 23 32 51 66 117 145 218 317 253 431 8 26 20 21 57
-22z"/>
<path d="M6310 9637 c0 -24 41 -140 73 -207 18 -36 53 -86 79 -112 26 -26 44
-49 40 -52 -4 -2 -24 -9 -44 -15 -29 -10 -38 -18 -38 -34 0 -29 82 -100 154
-131 53 -24 73 -46 42 -46 -21 0 -45 -38 -39 -60 5 -17 145 -154 189 -184 28
-19 72 -25 90 -11 24 17 9 52 -24 60 -32 7 -156 121 -147 135 3 6 19 10 34 10
29 0 51 16 51 37 0 15 -93 79 -177 121 -75 38 -83 49 -46 62 76 27 82 56 21
98 -24 17 -55 43 -70 59 -29 30 -101 162 -111 204 -13 52 -77 106 -77 66z"/>
<path d="M4760 9271 c-121 -39 -235 -168 -254 -287 -19 -114 42 -300 128 -390
30 -31 46 -57 50 -84 11 -67 65 -195 107 -251 52 -70 127 -137 162 -145 28 -6
87 12 87 26 0 12 -23 28 -51 35 -25 6 -89 65 -147 135 -41 49 -93 182 -96 244
-2 44 -6 53 -29 64 -107 52 -183 306 -128 424 27 56 102 134 149 153 19 8 65
15 102 15 64 0 70 -2 118 -41 37 -29 54 -51 61 -77 24 -95 32 -159 26 -208 -7
-61 -1 -67 79 -78 56 -7 136 -56 194 -118 53 -57 61 -76 61 -138 0 -77 -21
-127 -68 -168 -43 -36 -54 -75 -25 -86 26 -10 109 58 136 112 30 62 37 176 14
235 -30 78 -180 209 -257 223 -50 10 -59 21 -59 73 0 54 -34 196 -54 226 -8
11 -39 40 -70 64 -53 41 -59 43 -133 47 -43 2 -89 0 -103 -5z"/>
<path d="M7995 9165 c-47 -17 -92 -66 -101 -111 -12 -63 34 -214 64 -214 10 0
12 6 7 18 -4 9 -9 58 -12 107 -5 81 -3 93 16 116 12 16 34 29 53 32 28 4 38
-1 65 -32 27 -31 34 -34 50 -24 108 73 208 68 271 -15 20 -26 27 -48 29 -86 1
-28 4 -60 6 -71 3 -11 6 -23 6 -27 1 -4 25 -4 55 -1 44 5 63 1 109 -20 30 -15
68 -42 86 -62 28 -32 31 -42 31 -99 0 -57 -3 -66 -36 -104 -38 -45 -41 -75 -9
-80 49 -9 105 -102 108 -179 2 -35 -3 -47 -26 -68 -15 -15 -46 -29 -69 -33
-52 -9 -72 -36 -43 -58 27 -20 89 -11 137 21 43 28 78 89 78 134 0 44 -32 123
-73 179 -35 48 -36 49 -19 78 12 21 16 51 15 111 -1 76 -4 86 -33 126 -39 55
-148 110 -215 109 l-42 0 -7 59 c-9 95 -66 163 -155 189 -34 9 -169 -6 -187
-21 -11 -9 -20 -6 -45 15 -34 29 -56 31 -114 11z"/>
<path d="M7603 8955 c-16 -11 -32 -12 -79 -5 -108 18 -152 -28 -140 -145 5
-54 4 -64 -14 -80 -42 -38 -10 -167 52 -203 22 -13 29 -14 42 -2 14 11 15 15
2 29 -22 26 -46 78 -46 102 0 13 12 35 26 50 24 25 25 31 15 60 -6 18 -11 56
-11 85 0 49 2 54 25 60 14 3 38 3 53 -1 34 -9 70 -9 104 0 43 11 60 1 48 -29
-7 -19 -5 -29 7 -42 10 -10 16 -30 15 -49 -2 -22 3 -35 13 -39 19 -7 19 -35 0
-42 -23 -9 -18 -45 11 -75 38 -40 44 -107 14 -149 -22 -31 -24 -32 -87 -28
-56 4 -67 8 -87 33 l-23 29 -12 -22 c-16 -31 6 -61 61 -84 92 -37 163 -15 199
60 27 54 20 120 -16 167 -21 29 -23 36 -13 63 9 23 9 37 1 54 -15 30 -27 95
-24 134 2 25 -5 36 -33 57 -39 30 -71 34 -103 12z"/>
<path d="M4829 8864 c-10 -13 -9 -27 8 -82 11 -37 22 -74 24 -82 3 -10 -7 -16
-31 -20 -27 -4 -35 -10 -35 -25 0 -17 7 -20 49 -21 46 -1 51 -3 65 -32 17 -37
12 -45 -29 -44 -19 0 -30 -4 -30 -13 0 -18 23 -25 64 -18 31 5 36 2 51 -28 10
-19 38 -65 63 -104 25 -38 71 -122 103 -187 54 -108 100 -180 151 -236 12 -13
17 -26 12 -30 -5 -5 -36 -30 -69 -57 -102 -85 -261 -247 -309 -315 -60 -86
-127 -223 -167 -340 -31 -92 -32 -102 -39 -324 -4 -126 -6 -237 -4 -245 31
-154 68 -264 145 -428 16 -34 29 -65 29 -69 0 -7 78 -115 90 -124 4 -3 28 -37
53 -76 44 -67 181 -205 287 -288 35 -28 54 -36 87 -36 53 0 73 8 73 29 0 25
-20 41 -50 41 -41 0 -233 171 -307 275 -20 28 -60 79 -88 115 -29 36 -67 97
-85 135 -42 91 -73 159 -74 165 -1 3 -14 37 -28 75 -50 130 -60 213 -56 442
l4 208 37 103 c41 115 87 211 123 259 13 17 24 35 24 38 0 41 370 387 505 472
28 18 122 66 210 108 167 81 228 98 370 109 44 3 96 11 115 17 21 6 128 10
272 9 325 -1 367 -9 583 -120 163 -83 278 -154 310 -189 10 -12 64 -47 120
-78 110 -62 207 -147 261 -230 19 -28 38 -55 44 -58 27 -17 92 -132 120 -210
16 -49 41 -102 54 -120 14 -18 34 -61 46 -96 11 -35 24 -71 27 -79 3 -8 7 -19
8 -25 2 -5 13 -46 25 -90 30 -105 49 -256 50 -380 0 -87 -5 -119 -38 -235 -40
-139 -55 -176 -102 -245 -15 -22 -41 -67 -59 -100 -121 -222 -139 -240 -424
-423 -68 -44 -323 -122 -448 -138 -30 -3 -115 -22 -189 -41 -111 -28 -161 -35
-286 -40 -123 -5 -158 -3 -195 10 -24 9 -82 18 -129 22 -62 4 -108 15 -170 39
-79 32 -119 45 -340 111 -47 14 -111 37 -143 52 -45 21 -62 25 -75 17 -26 -16
-26 -47 0 -71 25 -22 177 -85 261 -107 80 -21 184 -55 277 -91 59 -23 111 -35
170 -40 47 -3 107 -13 135 -22 68 -22 334 -11 450 18 134 34 157 39 245 53
197 33 407 103 475 159 6 4 59 40 119 78 60 39 116 76 124 82 51 39 116 120
172 217 36 61 78 132 95 158 16 26 29 49 30 52 0 3 8 16 18 31 21 32 51 117
83 239 35 133 35 314 0 491 -13 68 -30 138 -36 154 -7 17 -14 41 -16 55 -11
54 -65 194 -87 224 -13 17 -34 60 -46 96 -13 36 -28 76 -34 90 -15 32 -80 129
-104 155 -10 11 -33 40 -51 65 -17 25 -40 54 -49 65 -31 35 -145 126 -170 136
-46 17 -164 92 -178 113 -8 11 -15 16 -15 11 0 -6 -5 -2 -11 7 -12 21 -149
102 -317 187 -193 97 -254 110 -558 112 -191 1 -269 -2 -336 -14 -48 -9 -117
-19 -155 -23 -82 -7 -133 -19 -193 -46 -87 -38 -315 -153 -318 -160 -2 -5 -8
-8 -14 -8 -6 0 -33 -16 -59 -35 -27 -19 -52 -35 -55 -35 -7 0 -36 36 -73 90
-14 19 -53 92 -88 162 -35 70 -78 152 -97 181 -19 30 -57 98 -84 152 l-50 98
71 51 c39 28 69 56 67 61 -7 16 -31 7 -92 -36 -31 -21 -60 -39 -63 -39 -3 0
-13 17 -22 38 -52 127 -63 141 -84 116z"/>
<path d="M7905 8797 c-21 -33 -45 -105 -45 -137 0 -38 29 -70 70 -79 l35 -7 5
-105 c6 -118 16 -143 79 -184 46 -31 96 -40 134 -26 55 21 24 71 -45 71 -39 0
-84 37 -94 76 -4 14 -4 64 -1 110 5 93 2 100 -54 110 -60 12 -71 22 -67 62 1
20 8 48 15 62 17 33 16 57 -2 64 -9 3 -21 -4 -30 -17z"/>
<path d="M5070 8653 c-50 -26 -76 -53 -51 -53 6 0 42 14 81 32 45 21 65 35 57
40 -19 12 -30 10 -87 -19z"/>
<path d="M8892 8633 c-1 -21 -4 -55 -8 -75 -5 -30 -2 -39 12 -45 37 -14 59 72
31 126 -19 38 -34 36 -35 -6z"/>
<path d="M7114 8533 c-43 -46 -67 -90 -60 -109 8 -20 17 -18 52 14 59 52 91
132 54 132 -5 0 -26 -17 -46 -37z"/>
<path d="M7229 8479 c-50 -54 -65 -111 -25 -96 20 8 96 105 96 123 0 26 -33
14 -71 -27z"/>
<path d="M4075 8480 c-42 -17 -115 -77 -142 -116 -51 -73 -53 -80 -53 -183 0
-91 3 -106 31 -165 17 -35 46 -82 65 -104 27 -32 34 -49 34 -81 0 -57 36 -128
82 -161 23 -17 68 -35 113 -45 41 -9 77 -20 80 -26 10 -15 51 -10 68 9 13 14
14 21 5 30 -7 7 -18 12 -24 12 -7 0 -28 9 -46 20 -18 10 -57 24 -86 30 -35 8
-62 22 -82 42 -27 26 -30 36 -30 89 0 57 -2 61 -46 106 -25 25 -59 73 -75 107
-38 81 -42 198 -7 255 53 89 140 139 219 126 92 -16 189 -115 189 -193 0 -41
24 -53 87 -45 73 8 114 -10 173 -73 36 -40 50 -64 52 -87 2 -51 -2 -80 -18
-111 -32 -65 3 -92 51 -40 31 34 44 78 39 138 -5 58 -20 87 -73 148 -58 65
-102 90 -174 97 l-60 6 -16 45 c-35 100 -158 180 -272 179 -35 0 -73 -4 -84
-9z"/>
<path d="M7358 8400 c-27 -20 -42 -56 -28 -65 13 -8 49 28 56 58 7 32 4 33
-28 7z"/>
<path d="M8924 8343 c1 -60 -2 -72 -26 -104 -45 -58 -33 -85 24 -58 55 25 83
117 58 193 -9 28 -17 36 -35 36 -22 0 -23 -3 -21 -67z"/>
<path d="M7758 8309 c-38 -19 -168 -143 -168 -160 0 -23 33 -1 124 86 54 52
95 95 90 94 -5 -1 -26 -10 -46 -20z"/>
<path d="M7843 8250 c-13 -5 -23 -14 -23 -20 0 -15 15 -12 41 10 26 21 18 24
-18 10z"/>
<path d="M4265 8203 c4 -26 14 -61 23 -78 14 -25 17 -27 20 -11 7 34 -19 136
-36 136 -11 0 -13 -9 -7 -47z"/>
<path d="M7849 8147 c-64 -44 -89 -71 -76 -83 11 -12 157 96 157 117 0 17 -17
9 -81 -34z"/>
<path d="M8244 8145 c-10 -39 11 -96 46 -130 28 -27 36 -29 98 -28 37 0 112 1
167 2 55 0 105 4 110 8 6 5 21 23 34 41 18 26 20 36 11 47 -17 21 -44 19 -65
-5 -22 -24 -102 -29 -111 -6 -10 26 -35 26 -59 0 -19 -20 -33 -25 -74 -26 -65
0 -95 19 -112 73 -17 51 -36 61 -45 24z"/>
<path d="M7708 8139 c-31 -23 -36 -39 -13 -39 13 0 65 44 65 55 0 11 -27 3
-52 -16z"/>
<path d="M6759 8111 c-138 -43 -316 -265 -364 -452 -9 -35 -25 -91 -36 -124
-18 -54 -39 -139 -71 -280 -18 -80 -66 -222 -91 -268 -33 -62 -121 -189 -147
-212 -20 -18 -50 -66 -50 -80 0 -10 40 -5 62 8 41 24 60 43 122 127 101 135
145 242 196 475 11 50 27 115 36 145 9 30 27 98 40 150 54 213 169 368 351
471 24 13 41 29 40 34 -4 13 -54 16 -88 6z"/>
<path d="M4240 8067 c0 -15 16 -37 48 -64 26 -22 106 -99 178 -169 198 -196
275 -252 309 -224 29 24 26 28 -112 143 -51 43 -95 82 -98 86 -2 5 2 25 10 44
8 19 19 55 24 79 6 25 13 53 17 62 6 16 4 17 -14 7 -23 -12 -47 -55 -57 -101
-4 -16 -11 -32 -16 -36 -5 -3 -37 21 -71 53 -113 108 -159 143 -192 143 -21 0
-26 -5 -26 -23z"/>
<path d="M4030 8066 c0 -14 72 -27 140 -25 l35 1 -37 12 c-20 6 -40 14 -44 19
-14 13 -94 8 -94 -7z"/>
<path d="M6985 8046 c-46 -25 -133 -135 -181 -230 -43 -84 -137 -344 -164
-457 -23 -94 -45 -249 -55 -384 -8 -114 -43 -440 -51 -486 -4 -18 -27 -85 -51
-147 -24 -62 -43 -120 -41 -130 4 -23 36 -27 58 -7 19 17 85 178 101 244 11
44 45 318 53 421 3 41 8 109 11 150 8 102 23 199 46 300 32 139 127 409 176
500 43 81 117 180 156 208 10 8 16 19 14 25 -6 18 -33 16 -72 -7z"/>
<path d="M8315 7954 c-5 -1 -23 -5 -38 -8 -39 -9 -117 -83 -117 -111 0 -16 -8
-25 -25 -29 -51 -13 -44 -96 12 -131 18 -11 37 -32 44 -48 6 -15 25 -39 42
-53 26 -22 38 -25 75 -21 60 7 92 38 92 92 0 34 5 43 28 57 35 21 56 60 49 90
-9 36 -141 168 -162 162z m49 -113 c32 -33 55 -65 51 -71 -4 -6 -25 -22 -46
-36 -38 -23 -40 -28 -37 -67 3 -40 2 -42 -27 -45 -43 -3 -58 10 -64 60 -6 41
-8 43 -38 42 -20 -1 -34 4 -37 13 -7 18 9 81 27 104 13 18 85 59 102 59 6 0
37 -27 69 -59z"/>
<path d="M4220 7820 c-26 -16 13 -45 59 -43 41 2 101 27 101 42 0 12 -141 13
-160 1z"/>
<path d="M7908 7775 c-43 -28 -54 -43 -41 -56 8 -8 104 49 118 71 12 19 -40 9
-77 -15z"/>
<path d="M4486 7681 c-9 -10 -35 -21 -57 -25 -48 -8 -51 -34 -6 -49 51 -17
145 46 122 83 -10 16 -40 12 -59 -9z"/>
<path d="M8045 7616 c-34 -15 -85 -70 -85 -91 0 -20 18 -28 27 -11 4 8 22 29
38 48 38 43 58 68 54 68 -2 -1 -18 -7 -34 -14z"/>
<path d="M8205 7488 c-30 -16 -105 -99 -105 -114 0 -37 51 2 115 89 28 38 25
45 -10 25z"/>
<path d="M4046 7416 c-14 -25 -26 -48 -26 -52 0 -4 -6 -15 -13 -23 -21 -24
-58 -131 -50 -144 3 -7 2 -9 -2 -5 -5 5 -28 -33 -51 -82 l-43 -91 -138 3 -138
3 -5 58 c-6 64 -17 77 -69 77 -41 0 -101 -42 -101 -70 0 -11 10 -48 21 -81 18
-51 21 -77 17 -151 -3 -48 -2 -88 3 -88 11 0 129 99 135 114 3 8 24 10 77 4
39 -4 80 -7 89 -7 12 -1 15 -6 11 -18 -7 -21 -121 -187 -153 -223 -12 -14 -31
-36 -43 -50 -51 -58 -97 -124 -97 -140 0 -30 23 -41 57 -28 34 13 37 11 149
-68 47 -33 70 -60 113 -131 35 -60 93 -133 172 -216 66 -70 119 -130 119 -135
0 -4 15 -16 33 -26 45 -26 78 -57 88 -83 9 -25 38 -30 57 -11 16 16 15 68 -3
202 -15 116 -11 136 27 136 10 0 54 11 96 23 86 27 210 59 322 85 89 21 100
27 100 52 0 28 -33 41 -82 34 -67 -9 -295 -72 -378 -104 -41 -16 -81 -30 -89
-32 -20 -4 -44 131 -91 512 -22 174 -33 210 -66 210 -21 0 -25 -32 -14 -131 6
-52 15 -137 20 -189 11 -103 37 -267 44 -279 3 -4 12 -76 20 -161 9 -85 18
-167 21 -182 3 -20 0 -28 -10 -28 -8 0 -25 12 -37 28 -13 15 -52 56 -88 93
-100 101 -146 156 -210 256 -60 94 -122 149 -212 189 -21 9 -38 19 -38 23 0 3
19 26 41 51 69 77 219 285 219 304 0 3 16 31 37 63 47 74 116 220 144 306 12
37 25 67 29 67 4 0 12 -21 18 -47 6 -27 18 -75 26 -108 9 -33 16 -86 16 -117
0 -71 19 -96 54 -73 15 10 44 14 87 13 78 -2 230 17 258 32 12 6 21 17 21 26
0 25 -41 32 -130 23 -47 -5 -114 -12 -150 -15 l-66 -6 -12 63 c-13 70 -36 166
-53 216 -5 18 -13 64 -16 103 -7 86 -27 94 -67 26z m-526 -344 c0 -20 -5 -54
-11 -76 -9 -33 -8 -41 10 -60 29 -31 26 -47 -13 -85 -38 -37 -48 -31 -40 25 9
61 10 146 1 176 -6 21 -3 32 13 48 27 27 40 18 40 -28z m176 -109 c86 -4 114
-9 114 -20 0 -20 -218 -19 -248 3 -24 16 -20 39 5 30 8 -3 66 -9 129 -13z"/>
<path d="M2260 7404 c-36 -19 -80 -47 -99 -63 -31 -25 -35 -35 -39 -88 -4 -56
-2 -62 28 -97 35 -39 35 -30 9 -156 -5 -25 -11 -72 -14 -105 -3 -33 -12 -77
-20 -98 -19 -47 -8 -73 40 -93 47 -19 59 -18 129 14 34 16 91 37 128 47 73 19
93 36 147 123 32 50 33 55 26 120 -4 37 -13 94 -20 127 -18 81 -28 245 -15
245 6 0 10 5 10 10 0 6 -10 8 -24 4 -15 -4 -35 3 -61 20 -58 40 -140 36 -225
-10z m223 -34 c23 -18 26 -28 30 -117 3 -54 10 -120 16 -148 31 -140 26 -177
-24 -187 -12 -2 -21 -13 -23 -28 -6 -38 -19 -48 -91 -70 -36 -11 -91 -32 -123
-46 -64 -30 -94 -27 -84 9 4 12 11 51 17 87 5 36 14 92 20 125 15 84 14 128
-4 161 -50 92 -51 94 -41 122 6 18 32 41 79 69 63 39 76 43 136 43 51 0 72 -5
92 -20z"/>
<path d="M2873 7284 c-33 -8 -83 -61 -83 -88 0 -18 -10 -31 -39 -47 -22 -12
-42 -32 -45 -44 -11 -45 16 -122 52 -150 10 -8 14 -40 16 -105 3 -138 25 -163
107 -124 69 34 121 86 152 152 28 61 29 68 22 145 -5 45 -8 102 -7 127 2 56
-13 94 -44 115 -25 16 -95 26 -131 19z m68 -54 l37 -10 16 -104 c9 -58 16
-118 16 -134 0 -49 -30 -119 -67 -157 -39 -41 -101 -71 -114 -58 -5 5 -10 37
-11 71 -3 56 0 65 20 81 23 17 23 19 7 35 -9 9 -29 23 -45 31 -28 15 -50 59
-50 101 0 27 42 43 64 25 21 -18 41 11 26 39 -16 29 -6 64 22 78 29 14 36 14
79 2z"/>
<path d="M8592 7250 c-92 -31 -160 -116 -164 -206 l-3 -57 -76 2 c-58 2 -79
-1 -88 -13 -11 -13 -11 -19 0 -32 11 -14 28 -16 102 -11 l88 6 11 -30 c5 -16
14 -29 19 -29 5 0 9 -6 9 -14 0 -7 16 -34 35 -60 32 -41 40 -46 74 -46 48 0
63 17 52 56 -16 56 -42 94 -81 120 -43 28 -44 48 -4 38 29 -7 74 13 74 32 0 7
18 25 40 41 51 36 70 82 58 137 -17 75 -61 95 -146 66z m88 -59 c5 -11 10 -28
10 -38 0 -20 -44 -73 -61 -73 -5 0 -15 -11 -21 -25 -6 -14 -19 -25 -28 -25
-20 0 -90 28 -90 35 0 11 48 81 66 97 20 17 81 46 101 47 7 1 17 -8 23 -18z
m-150 -203 c0 -4 -5 -10 -10 -13 -6 -4 12 -24 39 -46 30 -24 55 -54 65 -79 25
-62 22 -70 -24 -70 -35 0 -42 4 -52 28 -6 15 -22 49 -35 76 -12 28 -23 58 -23
67 0 10 -6 20 -12 22 -10 4 -10 7 -1 14 15 11 53 12 53 1z"/>
<path d="M3183 7071 c-65 -47 -85 -88 -67 -135 7 -19 55 -21 85 -5 17 9 21 7
26 -10 7 -28 39 -27 57 2 19 29 14 118 -8 152 -21 33 -44 32 -93 -4z m65 -18
c10 -20 14 -113 4 -113 -3 0 -13 7 -22 15 -15 14 -18 14 -30 0 -7 -8 -25 -15
-41 -15 -24 0 -29 4 -29 25 0 22 54 90 71 90 4 0 11 3 15 8 12 12 23 8 32 -10z"/>
<path d="M4453 6900 c-52 -12 -143 -62 -168 -92 -18 -21 -24 -40 -23 -76 0
-62 35 -138 63 -135 11 1 23 -4 27 -10 6 -10 38 -5 169 29 15 4 39 56 39 85 0
9 -11 44 -25 78 -18 46 -22 68 -15 81 7 14 6 23 -6 34 -8 9 -18 16 -22 15 -4
-1 -22 -4 -39 -9z m25 -96 c7 -26 11 -49 9 -51 -3 -2 -20 -6 -39 -10 -33 -5
-36 -3 -48 28 -8 19 -15 37 -18 41 -3 7 53 36 73 37 6 1 16 -20 23 -45z m-114
-46 c6 -34 3 -45 -10 -55 -26 -19 -31 -16 -43 18 -20 58 -13 76 30 78 12 1 18
-11 23 -41z m144 -74 c4 -28 -54 -56 -69 -33 -15 23 -10 39 14 49 32 13 52 8
55 -16z m-122 -35 c13 -26 14 -33 2 -40 -17 -11 -38 -11 -38 0 0 5 -3 23 -6
40 -9 42 20 42 42 0z"/>
<path d="M8595 6679 c-17 -4 -41 -18 -53 -29 -31 -29 -26 -97 8 -137 46 -53
63 -94 64 -152 1 -49 -2 -56 -19 -59 -12 -1 -25 6 -32 18 -23 35 -53 124 -54
155 -1 51 -13 68 -60 81 -61 19 -151 27 -168 15 -24 -16 -5 -41 31 -41 18 -1
62 -6 97 -13 l64 -12 2 -50 c2 -51 54 -182 78 -197 23 -15 49 -8 79 23 28 27
30 34 24 75 -3 24 -12 57 -20 72 -30 60 -29 70 6 88 18 9 45 28 61 42 47 45
30 122 -28 122 -13 0 -29 2 -37 4 -7 2 -27 0 -43 -5z m84 -67 c0 -24 -54 -64
-81 -60 -36 5 -35 42 0 59 45 22 82 22 81 1z"/>
<path d="M5825 6597 c-65 -35 -230 -156 -282 -206 -86 -83 -248 -372 -241
-430 5 -43 39 -34 66 19 32 64 119 216 157 275 34 52 100 119 170 170 22 17
45 35 51 40 6 6 48 37 92 70 82 61 95 78 66 89 -19 7 -9 11 -79 -27z"/>
<path d="M6298 6103 c-8 -10 -50 -70 -93 -133 -42 -63 -82 -119 -88 -125 -7
-5 -31 -35 -53 -66 -56 -74 -118 -137 -182 -183 -40 -29 -52 -44 -50 -60 2
-15 11 -22 30 -24 71 -8 267 202 427 456 39 61 71 119 73 129 4 25 -43 30 -64
6z"/>
<path d="M8172 6090 c-15 -15 -22 -33 -22 -60 0 -46 21 -70 60 -70 46 0 118
96 92 122 -15 15 -42 2 -42 -20 0 -20 -39 -62 -58 -62 -15 0 -16 64 -2 91 14
25 0 24 -28 -1z"/>
<path d="M8040 5960 c0 -5 9 -10 20 -10 11 0 20 5 20 10 0 6 -9 10 -20 10 -11
0 -20 -4 -20 -10z"/>
<path d="M8100 5912 c0 -13 46 -35 62 -30 8 3 1 11 -19 21 -36 19 -43 20 -43
9z"/>
<path d="M7991 5839 c-13 -38 -13 -50 -2 -68 8 -12 13 -12 36 3 19 13 24 20
15 26 -8 5 -7 9 5 13 11 5 14 3 9 -5 -5 -8 -2 -9 9 -5 20 8 22 -6 5 -33 -7
-10 -9 -22 -6 -26 13 -13 38 6 55 40 13 29 14 38 3 51 -16 19 -40 19 -67 0
-23 -16 -37 -7 -27 19 4 10 1 16 -9 16 -8 0 -20 -14 -26 -31z"/>
<path d="M7971 5686 c-9 -11 -19 -13 -37 -6 -19 7 -26 6 -30 -5 -6 -16 4 -38
14 -31 4 2 7 -16 7 -40 0 -24 -4 -44 -9 -44 -5 0 -6 3 -3 7 4 3 -7 14 -23 24
-17 11 -30 23 -30 29 0 5 -7 10 -15 10 -8 0 -15 -7 -15 -15 0 -8 6 -15 14 -15
8 0 18 -5 22 -12 4 -7 3 -8 -4 -4 -17 10 -15 0 4 -18 17 -18 39 -22 29 -5 -4
6 2 5 14 -3 18 -11 23 -10 35 7 9 11 16 28 16 37 0 9 12 29 26 43 25 25 28 45
7 52 -5 2 -16 -3 -22 -11z"/>
<path d="M7757 5563 c-4 -3 -7 -14 -7 -24 0 -13 -8 -17 -32 -15 -25 1 -35 -5
-44 -24 -9 -16 -10 -28 -3 -36 17 -21 -7 -25 -26 -4 -10 11 -22 20 -27 20 -18
0 -6 -28 26 -59 32 -31 35 -32 45 -14 6 10 11 13 11 8 0 -6 -6 -17 -12 -23
-10 -10 -10 -15 2 -22 25 -15 35 6 22 43 -16 45 -16 78 2 71 7 -3 18 -16 24
-30 7 -14 20 -24 33 -24 19 0 21 4 16 40 -6 45 -5 46 28 24 20 -13 28 -14 40
-4 21 17 19 40 -4 40 -10 0 -30 9 -44 20 -26 21 -39 24 -50 13z m16 -18 c-3
-9 -8 -14 -10 -11 -3 3 -2 9 2 15 9 16 15 13 8 -4z"/>
<path d="M5252 5520 c-22 -14 -32 -26 -28 -36 3 -9 1 -12 -4 -9 -20 13 -9 -32
13 -53 24 -22 71 -30 82 -13 5 10 -12 26 -29 26 -5 0 -14 7 -19 17 -19 29 10
51 60 45 52 -6 56 9 8 29 -44 18 -44 18 -83 -6z"/>
<path d="M5430 5431 c0 -6 -6 -8 -14 -5 -18 7 -56 -33 -56 -59 0 -24 26 -50
41 -41 7 4 9 3 6 -3 -9 -15 30 -24 57 -13 49 18 74 90 37 109 -29 15 -71 22
-71 12z m15 -20 c-3 -5 4 -16 16 -25 12 -8 18 -19 14 -25 -8 -13 -45 -14 -65
-1 -12 7 -11 13 10 34 24 26 36 34 25 17z"/>
<path d="M5660 5350 c-9 -17 -17 -20 -46 -14 -26 5 -34 3 -34 -9 0 -8 12 -18
26 -21 23 -6 25 -11 20 -34 -14 -54 -12 -67 9 -67 11 0 20 5 20 10 2 26 18 55
31 55 12 0 14 7 9 29 -5 25 -3 30 24 39 43 15 38 32 -9 32 -29 0 -42 -5 -50
-20z"/>
<path d="M7203 5353 c-15 -5 -17 -35 -4 -48 18 -20 17 -50 -4 -60 -11 -6 -29
-28 -40 -48 l-20 -38 24 -20 c28 -23 43 -24 88 -2 56 26 61 51 25 125 -35 75
-53 97 -69 91z m42 -140 c0 -24 -19 -43 -42 -43 -17 0 -16 16 2 44 20 30 41
29 40 -1z"/>
<path d="M5858 5299 c-10 -5 -18 -17 -18 -25 0 -12 -7 -14 -29 -9 -38 8 -51
-12 -16 -25 18 -7 25 -15 22 -28 -14 -48 -15 -68 -8 -81 14 -23 38 -5 45 33 4
21 15 40 27 47 14 7 17 14 11 22 -23 31 -20 42 15 43 38 2 48 8 38 23 -8 14
-64 14 -87 0z"/>
<path d="M6939 5230 c-8 -31 -5 -67 7 -96 16 -38 33 -40 49 -6 12 27 21 28 35
2 12 -22 35 -26 45 -9 9 13 -35 97 -54 104 -8 3 -21 -1 -31 -10 -14 -13 -18
-13 -33 2 -9 10 -18 15 -18 13z"/>
<path d="M6015 5185 c-30 -29 -30 -38 -8 -76 30 -51 123 -78 131 -37 2 12 -7
18 -36 23 -22 3 -50 17 -62 30 -27 29 -11 42 24 20 50 -33 109 4 72 44 -28 30
-90 28 -121 -4z m95 -15 c0 -13 -20 -13 -40 0 -12 8 -9 10 13 10 15 0 27 -4
27 -10z"/>
<path d="M6230 5158 c-39 -65 -17 -108 58 -116 34 -3 52 0 57 8 12 19 -24 41
-59 38 -18 -2 -31 2 -34 11 -3 11 2 12 23 7 59 -15 91 21 54 61 -33 35 -75 31
-99 -9z m63 -4 c11 -11 -3 -24 -18 -18 -8 4 -12 10 -9 15 6 11 18 12 27 3z"/>
<path d="M6766 5168 c-37 -52 -3 -114 48 -90 13 5 35 8 50 5 17 -4 33 1 46 12
31 28 26 47 -12 43 -27 -2 -35 2 -46 25 -17 35 -63 38 -86 5z m44 -32 c0 -8
-4 -18 -10 -21 -5 -3 -10 3 -10 14 0 12 5 21 10 21 6 0 10 -6 10 -14z"/>
<path d="M8888 4453 c-13 -16 -7 -75 21 -203 17 -81 21 -144 26 -429 5 -344 7
-355 45 -348 38 6 41 42 35 315 -4 144 -3 262 2 260 4 -1 46 2 93 6 47 4 148
8 224 9 122 2 140 4 150 20 9 15 6 22 -14 39 -23 19 -33 20 -115 13 -49 -4
-137 -11 -195 -15 -58 -5 -117 -11 -131 -15 -25 -7 -25 -6 -37 77 -7 46 -17
110 -22 143 -5 33 -8 61 -6 62 1 1 102 4 225 5 237 2 262 7 223 46 -27 27
-113 34 -334 31 -130 -3 -182 -7 -190 -16z"/>
<path d="M9835 4450 c-3 -5 -6 -54 -6 -107 0 -139 21 -712 27 -750 6 -40 32
-55 81 -48 21 3 166 7 323 8 228 2 290 6 308 17 26 17 29 42 7 60 -24 20 -453
16 -596 -6 l-36 -5 -7 47 c-3 26 -6 79 -6 119 l0 72 176 7 c96 4 214 4 262 0
69 -5 91 -3 107 9 17 13 18 17 5 32 -29 35 -75 45 -197 45 -65 0 -161 -7 -213
-15 -149 -23 -134 -32 -148 98 -6 61 -13 139 -14 172 l-3 60 65 6 c36 4 128 8
205 9 169 2 224 9 239 32 8 13 6 22 -9 39 -19 21 -24 21 -140 13 -66 -4 -176
-8 -245 -9 l-125 0 -3 40 c-2 22 -8 45 -14 52 -13 16 -34 17 -43 3z m80 -860
c3 -5 1 -10 -4 -10 -6 0 -11 5 -11 10 0 6 2 10 4 10 3 0 8 -4 11 -10z"/>
<path d="M7024 4370 c-151 -74 -221 -213 -254 -506 -15 -128 -3 -194 51 -285
95 -163 236 -227 403 -184 123 32 235 160 181 205 -22 19 -61 4 -90 -34 -31
-40 -102 -73 -178 -82 -48 -6 -61 -3 -103 20 -87 48 -132 100 -160 185 -34
105 0 383 60 484 34 59 96 113 145 128 35 10 46 10 82 -6 25 -12 51 -34 66
-58 18 -28 30 -37 46 -35 19 3 22 9 20 41 -3 45 -33 88 -87 123 -59 40 -108
41 -182 4z"/>
<path d="M8001 4387 c-6 -8 -12 -24 -13 -38 -2 -13 -6 -26 -9 -29 -7 -5 -38
-202 -83 -525 -30 -213 -30 -237 -9 -264 l20 -25 15 25 c10 15 18 60 22 119 3
52 8 106 10 120 2 14 5 28 5 32 1 3 16 1 35 -4 24 -8 58 -8 108 -1 82 11 82
11 99 -54 7 -25 16 -40 22 -36 6 3 7 1 3 -5 -3 -6 5 -44 19 -84 15 -40 38
-107 51 -148 14 -41 34 -84 45 -95 19 -19 19 -19 41 3 l23 22 -18 67 c-14 54
-72 212 -128 348 -4 11 -19 54 -32 95 -14 42 -48 133 -77 204 -28 70 -60 157
-71 193 -22 78 -53 110 -78 80z m49 -215 c0 -7 5 -10 12 -6 6 4 8 3 4 -4 -3
-6 6 -41 20 -79 45 -117 73 -213 63 -219 -5 -3 -44 -8 -86 -10 -43 -3 -81 -8
-85 -10 -4 -3 -8 3 -8 13 0 29 27 240 41 318 12 69 12 70 25 40 7 -16 13 -36
14 -43z"/>
<path d="M4925 4359 c-44 -18 -65 -20 -165 -15 -120 6 -457 -17 -497 -34 -31
-13 -29 -38 3 -46 15 -4 97 -3 183 1 259 13 234 16 243 -30 3 -22 13 -58 21
-80 15 -42 37 -154 56 -282 6 -39 11 -166 11 -281 l0 -209 -25 -26 c-31 -30
-61 -37 -121 -26 -67 13 -107 42 -166 120 -53 73 -78 84 -102 47 -14 -24 11
-70 74 -135 69 -71 127 -98 215 -98 91 0 131 22 165 90 24 48 25 56 24 240 -3
296 -44 546 -106 637 -10 14 -18 29 -18 32 0 3 40 6 90 6 73 0 102 5 155 26
67 27 77 41 49 68 -20 20 -28 20 -89 -5z"/>
<path d="M5456 4355 c-10 -26 -7 -292 4 -385 13 -113 16 -138 35 -325 32 -326
39 -357 79 -342 19 8 21 96 6 227 -6 47 -15 130 -20 185 -5 55 -16 154 -25
220 -8 66 -19 176 -25 245 -10 133 -19 181 -37 187 -6 2 -13 -3 -17 -12z"/>
<path d="M2187 4245 c-51 -19 -128 -77 -159 -117 -50 -67 -128 -219 -149 -290
-16 -55 -22 -110 -25 -223 -4 -137 -3 -156 18 -215 18 -51 28 -66 46 -68 25
-4 28 12 12 68 -14 49 -14 256 0 326 21 109 31 139 78 233 68 137 153 215 249
228 63 9 103 -67 123 -233 10 -86 39 -206 65 -269 26 -61 120 -197 177 -254
66 -66 117 -92 193 -99 59 -4 62 -4 102 34 50 47 74 99 106 236 32 132 43 241
39 400 -2 146 -11 178 -46 178 -39 0 -45 -17 -36 -100 14 -119 11 -218 -10
-357 -23 -152 -57 -254 -99 -297 l-30 -30 -58 18 c-67 21 -134 82 -200 181
-80 120 -112 210 -137 385 -20 143 -49 213 -104 254 -32 25 -106 30 -155 11z
m90 -21 c-3 -3 -12 -4 -19 -1 -8 3 -5 6 6 6 11 1 17 -2 13 -5z"/>
<path d="M3613 4044 c-10 -26 13 -271 42 -444 7 -47 21 -130 30 -185 23 -140
27 -150 56 -150 23 0 24 3 23 55 0 30 -12 125 -26 210 -14 85 -29 184 -33 220
-3 36 -8 85 -11 110 -6 61 -34 172 -46 188 -14 16 -27 15 -35 -4z"/>
<path d="M10960 3510 c-26 -26 -25 -42 3 -68 28 -27 68 -28 90 -4 23 25 21 45
-6 70 -29 27 -61 28 -87 2z"/>
<path d="M10905 3059 c-137 -4 -491 -12 -785 -18 -294 -6 -632 -14 -750 -16
-573 -13 -2107 -39 -3225 -55 -363 -5 -815 -12 -1005 -15 -190 -3 -624 -10
-965 -15 -1416 -22 -2276 -44 -2327 -58 -46 -12 -32 -27 34 -36 62 -8 1213 5
2128 24 919 20 1378 30 1570 35 259 7 1012 23 1655 35 286 6 729 15 985 20
396 8 1082 20 2719 45 327 5 341 7 320 47 -7 14 -21 18 -57 16 -26 0 -159 -5
-297 -9z"/>
</g>
</svg>
